<svg xmlns="http://www.w3.org/2000/svg" xmlns:xlink="http://www.w3.org/1999/xlink" width="60" zoomAndPan="magnify" viewBox="0 0 45 44.999999" height="60" preserveAspectRatio="xMidYMid meet" version="1.0"><defs><g/><clipPath id="3f5100889e"><path d="M 22.5 0 C 34.925781 0 45 10.074219 45 22.5 C 45 34.925781 34.925781 45 22.5 45 C 10.074219 45 0 34.925781 0 22.5 C 0 10.074219 10.074219 0 22.5 0 " clip-rule="nonzero"/></clipPath></defs><g clip-path="url(#3f5100889e)"><rect x="-4.5" width="54" fill="#0a1026" y="-4.5" height="53.999999" fill-opacity="1"/></g><g fill="#f3da38" fill-opacity="1"><g transform="translate(2.255654, 30.681824)"><g><path d="M 0.796875 -8.421875 C 0.796875 -10.085938 1.148438 -11.566406 1.859375 -12.859375 C 2.578125 -14.160156 3.578125 -15.175781 4.859375 -15.90625 C 6.148438 -16.632812 7.609375 -17 9.234375 -17 C 11.234375 -17 12.941406 -16.46875 14.359375 -15.40625 C 15.785156 -14.351562 16.738281 -12.921875 17.21875 -11.109375 L 12.703125 -11.109375 C 12.367188 -11.804688 11.894531 -12.335938 11.28125 -12.703125 C 10.664062 -13.078125 9.96875 -13.265625 9.1875 -13.265625 C 7.925781 -13.265625 6.90625 -12.820312 6.125 -11.9375 C 5.34375 -11.0625 4.953125 -9.890625 4.953125 -8.421875 C 4.953125 -6.953125 5.34375 -5.78125 6.125 -4.90625 C 6.90625 -4.03125 7.925781 -3.59375 9.1875 -3.59375 C 9.96875 -3.59375 10.664062 -3.773438 11.28125 -4.140625 C 11.894531 -4.503906 12.367188 -5.039062 12.703125 -5.75 L 17.21875 -5.75 C 16.738281 -3.925781 15.785156 -2.488281 14.359375 -1.4375 C 12.941406 -0.394531 11.234375 0.125 9.234375 0.125 C 7.609375 0.125 6.148438 -0.238281 4.859375 -0.96875 C 3.578125 -1.695312 2.578125 -2.707031 1.859375 -4 C 1.148438 -5.289062 0.796875 -6.765625 0.796875 -8.421875 Z M 0.796875 -8.421875 "/></g></g></g><g fill="#ffffff" fill-opacity="1"><g transform="translate(19.789805, 29.2045)"><g><path d="M 10.046875 -2.5 L 4.765625 -2.5 L 3.921875 0 L 0.328125 0 L 5.4375 -14.140625 L 9.421875 -14.140625 L 14.546875 0 L 10.890625 0 Z M 9.15625 -5.15625 L 7.40625 -10.328125 L 5.671875 -5.15625 Z M 9.15625 -5.15625 "/></g></g></g><g fill="#ffffff" fill-opacity="1"><g transform="translate(35.8559, 29.2045)"><g><path d="M 2.984375 -12.40625 C 2.378906 -12.40625 1.882812 -12.582031 1.5 -12.9375 C 1.113281 -13.289062 0.921875 -13.734375 0.921875 -14.265625 C 0.921875 -14.796875 1.113281 -15.238281 1.5 -15.59375 C 1.882812 -15.945312 2.378906 -16.125 2.984375 -16.125 C 3.566406 -16.125 4.050781 -15.945312 4.4375 -15.59375 C 4.820312 -15.238281 5.015625 -14.796875 5.015625 -14.265625 C 5.015625 -13.734375 4.820312 -13.289062 4.4375 -12.9375 C 4.050781 -12.582031 3.566406 -12.40625 2.984375 -12.40625 Z M 4.6875 -11.234375 L 4.6875 0 L 1.25 0 L 1.25 -11.234375 Z M 4.6875 -11.234375 "/></g></g></g></svg>