<svg xmlns="http://www.w3.org/2000/svg" xmlns:xlink="http://www.w3.org/1999/xlink" width="141" zoomAndPan="magnify" viewBox="0 0 105.75 44.999999" height="60" preserveAspectRatio="xMidYMid meet" version="1.0"><defs><g/><clipPath id="ba591522cb"><path d="M 15 0.0546875 L 105.5 0.0546875 L 105.5 29 L 15 29 Z M 15 0.0546875 " clip-rule="nonzero"/></clipPath></defs><g fill="#0a1026" fill-opacity="1"><g transform="translate(2.876504, 29.09555)"><g><path d="M 0.59375 -6.28125 C 0.59375 -7.519531 0.859375 -8.625 1.390625 -9.59375 C 1.929688 -10.570312 2.679688 -11.332031 3.640625 -11.875 C 4.597656 -12.414062 5.679688 -12.6875 6.890625 -12.6875 C 8.378906 -12.6875 9.65625 -12.289062 10.71875 -11.5 C 11.78125 -10.71875 12.488281 -9.644531 12.84375 -8.28125 L 9.484375 -8.28125 C 9.234375 -8.8125 8.878906 -9.210938 8.421875 -9.484375 C 7.960938 -9.753906 7.441406 -9.890625 6.859375 -9.890625 C 5.921875 -9.890625 5.160156 -9.5625 4.578125 -8.90625 C 3.992188 -8.25 3.703125 -7.375 3.703125 -6.28125 C 3.703125 -5.1875 3.992188 -4.3125 4.578125 -3.65625 C 5.160156 -3 5.921875 -2.671875 6.859375 -2.671875 C 7.441406 -2.671875 7.960938 -2.804688 8.421875 -3.078125 C 8.878906 -3.359375 9.234375 -3.757812 9.484375 -4.28125 L 12.84375 -4.28125 C 12.488281 -2.925781 11.78125 -1.859375 10.71875 -1.078125 C 9.65625 -0.296875 8.378906 0.09375 6.890625 0.09375 C 5.679688 0.09375 4.597656 -0.175781 3.640625 -0.71875 C 2.679688 -1.257812 1.929688 -2.007812 1.390625 -2.96875 C 0.859375 -3.9375 0.59375 -5.039062 0.59375 -6.28125 Z M 0.59375 -6.28125 "/></g></g></g><g fill="#0a1026" fill-opacity="1"><g transform="translate(17.571863, 29.09555)"><g><path d="M 5.640625 0.15625 C 4.722656 0.15625 3.890625 -0.0507812 3.140625 -0.46875 C 2.398438 -0.882812 1.816406 -1.472656 1.390625 -2.234375 C 0.972656 -3.003906 0.765625 -3.894531 0.765625 -4.90625 C 0.765625 -5.90625 0.984375 -6.789062 1.421875 -7.5625 C 1.859375 -8.332031 2.453125 -8.921875 3.203125 -9.328125 C 3.953125 -9.742188 4.789062 -9.953125 5.71875 -9.953125 C 6.644531 -9.953125 7.484375 -9.742188 8.234375 -9.328125 C 8.984375 -8.921875 9.570312 -8.332031 10 -7.5625 C 10.4375 -6.800781 10.65625 -5.914062 10.65625 -4.90625 C 10.65625 -3.894531 10.429688 -3.003906 9.984375 -2.234375 C 9.546875 -1.472656 8.941406 -0.882812 8.171875 -0.46875 C 7.410156 -0.0507812 6.566406 0.15625 5.640625 0.15625 Z M 5.640625 -1.265625 C 6.222656 -1.265625 6.769531 -1.398438 7.28125 -1.671875 C 7.789062 -1.953125 8.203125 -2.363281 8.515625 -2.90625 C 8.835938 -3.457031 9 -4.125 9 -4.90625 C 9 -5.695312 8.84375 -6.363281 8.53125 -6.90625 C 8.226562 -7.457031 7.828125 -7.863281 7.328125 -8.125 C 6.828125 -8.394531 6.285156 -8.53125 5.703125 -8.53125 C 5.097656 -8.53125 4.550781 -8.394531 4.0625 -8.125 C 3.570312 -7.863281 3.175781 -7.457031 2.875 -6.90625 C 2.570312 -6.363281 2.421875 -5.695312 2.421875 -4.90625 C 2.421875 -4.113281 2.566406 -3.441406 2.859375 -2.890625 C 3.148438 -2.347656 3.539062 -1.941406 4.03125 -1.671875 C 4.519531 -1.398438 5.054688 -1.265625 5.640625 -1.265625 Z M 5.640625 -1.265625 "/></g></g></g><g fill="#0a1026" fill-opacity="1"><g transform="translate(30.089828, 29.09555)"><g><path d="M 6.140625 -9.96875 C 7.328125 -9.96875 8.289062 -9.601562 9.03125 -8.875 C 9.769531 -8.15625 10.140625 -7.117188 10.140625 -5.765625 L 10.140625 0 L 8.53125 0 L 8.53125 -5.53125 C 8.53125 -6.507812 8.285156 -7.253906 7.796875 -7.765625 C 7.316406 -8.285156 6.648438 -8.546875 5.796875 -8.546875 C 4.941406 -8.546875 4.257812 -8.28125 3.75 -7.75 C 3.25 -7.21875 3 -6.4375 3 -5.40625 L 3 0 L 1.375 0 L 1.375 -9.78125 L 3 -9.78125 L 3 -8.390625 C 3.320312 -8.890625 3.757812 -9.273438 4.3125 -9.546875 C 4.863281 -9.828125 5.472656 -9.96875 6.140625 -9.96875 Z M 6.140625 -9.96875 "/></g></g></g><g fill="#0a1026" fill-opacity="1"><g transform="translate(42.607794, 29.09555)"><g><path d="M 5.015625 -1.5 L 8.046875 -9.78125 L 9.78125 -9.78125 L 5.953125 0 L 4.046875 0 L 0.21875 -9.78125 L 1.96875 -9.78125 Z M 5.015625 -1.5 "/></g></g></g><g fill="#0a1026" fill-opacity="1"><g transform="translate(53.715058, 29.09555)"><g><path d="M 10.3125 -5.265625 C 10.3125 -4.953125 10.289062 -4.625 10.25 -4.28125 L 2.421875 -4.28125 C 2.484375 -3.320312 2.816406 -2.570312 3.421875 -2.03125 C 4.023438 -1.488281 4.753906 -1.21875 5.609375 -1.21875 C 6.304688 -1.21875 6.890625 -1.378906 7.359375 -1.703125 C 7.835938 -2.035156 8.171875 -2.472656 8.359375 -3.015625 L 10.109375 -3.015625 C 9.847656 -2.078125 9.320312 -1.3125 8.53125 -0.71875 C 7.75 -0.132812 6.773438 0.15625 5.609375 0.15625 C 4.679688 0.15625 3.847656 -0.0507812 3.109375 -0.46875 C 2.378906 -0.882812 1.804688 -1.472656 1.390625 -2.234375 C 0.972656 -3.003906 0.765625 -3.894531 0.765625 -4.90625 C 0.765625 -5.914062 0.96875 -6.800781 1.375 -7.5625 C 1.78125 -8.332031 2.347656 -8.921875 3.078125 -9.328125 C 3.804688 -9.742188 4.648438 -9.953125 5.609375 -9.953125 C 6.535156 -9.953125 7.351562 -9.75 8.0625 -9.34375 C 8.78125 -8.9375 9.332031 -8.378906 9.71875 -7.671875 C 10.113281 -6.960938 10.3125 -6.160156 10.3125 -5.265625 Z M 8.625 -5.609375 C 8.625 -6.222656 8.484375 -6.753906 8.203125 -7.203125 C 7.929688 -7.648438 7.5625 -7.988281 7.09375 -8.21875 C 6.625 -8.457031 6.101562 -8.578125 5.53125 -8.578125 C 4.707031 -8.578125 4.007812 -8.3125 3.4375 -7.78125 C 2.863281 -7.257812 2.535156 -6.535156 2.453125 -5.609375 Z M 8.625 -5.609375 "/></g></g></g><g fill="#0a1026" fill-opacity="1"><g transform="translate(65.875885, 29.09555)"><g><path d="M 3 -8.203125 C 3.28125 -8.753906 3.6875 -9.1875 4.21875 -9.5 C 4.75 -9.8125 5.394531 -9.96875 6.15625 -9.96875 L 6.15625 -8.28125 L 5.734375 -8.28125 C 3.910156 -8.28125 3 -7.296875 3 -5.328125 L 3 0 L 1.375 0 L 1.375 -9.78125 L 3 -9.78125 Z M 3 -8.203125 "/></g></g></g><g fill="#0a1026" fill-opacity="1"><g transform="translate(73.626037, 29.09555)"><g><path d="M 3.359375 -8.453125 L 3.359375 -2.671875 C 3.359375 -2.203125 3.457031 -1.867188 3.65625 -1.671875 C 3.863281 -1.472656 4.21875 -1.375 4.71875 -1.375 L 5.90625 -1.375 L 5.90625 0 L 4.453125 0 C 3.546875 0 2.863281 -0.207031 2.40625 -0.625 C 1.957031 -1.039062 1.734375 -1.722656 1.734375 -2.671875 L 1.734375 -8.453125 L 0.46875 -8.453125 L 0.46875 -9.78125 L 1.734375 -9.78125 L 1.734375 -12.25 L 3.359375 -12.25 L 3.359375 -9.78125 L 5.90625 -9.78125 L 5.90625 -8.453125 Z M 3.359375 -8.453125 "/></g></g></g><g fill="#ff3131" fill-opacity="1"><g transform="translate(80.844214, 29.056491)"><g><path d="M 8.71875 -2.171875 L 4.140625 -2.171875 L 3.40625 0 L 0.28125 0 L 4.71875 -12.265625 L 8.171875 -12.265625 L 12.609375 0 L 9.453125 0 Z M 7.953125 -4.46875 L 6.421875 -8.96875 L 4.921875 -4.46875 Z M 7.953125 -4.46875 "/></g></g></g><g fill="#ff3131" fill-opacity="1"><g transform="translate(94.782268, 29.056491)"><g><path d="M 2.578125 -10.765625 C 2.054688 -10.765625 1.628906 -10.914062 1.296875 -11.21875 C 0.960938 -11.53125 0.796875 -11.914062 0.796875 -12.375 C 0.796875 -12.832031 0.960938 -13.21875 1.296875 -13.53125 C 1.628906 -13.84375 2.054688 -14 2.578125 -14 C 3.097656 -14 3.519531 -13.84375 3.84375 -13.53125 C 4.175781 -13.21875 4.34375 -12.832031 4.34375 -12.375 C 4.34375 -11.914062 4.175781 -11.53125 3.84375 -11.21875 C 3.519531 -10.914062 3.097656 -10.765625 2.578125 -10.765625 Z M 4.0625 -9.75 L 4.0625 0 L 1.078125 0 L 1.078125 -9.75 Z M 4.0625 -9.75 "/></g></g></g><g clip-path="url(#ba591522cb)"><path stroke-linecap="butt" transform="matrix(-0.746278, 0.000471556, -0.000473908, -0.75, 102.481048, 12.506203)" fill="none" stroke-linejoin="miter" d="M -0.000492858 1.997854 L 94.47875 1.999966 " stroke="#0a1026" stroke-width="4" stroke-opacity="1" stroke-miterlimit="4"/></g><path stroke-linecap="butt" transform="matrix(0.000000000000000047, -0.77306, 0.75, 0.000000000000000046, 31.626472, 17.957395)" fill="none" stroke-linejoin="miter" d="M 0.00047101 1.998038 L 10.677399 1.998038 " stroke="#0a1026" stroke-width="4" stroke-opacity="1" stroke-miterlimit="4"/><path stroke-linecap="butt" transform="matrix(0.000000000000000377, -0.745546, 0.75, 0.000000000000000379, 100.121424, 35.156642)" fill="none" stroke-linejoin="miter" d="M 0.000525486 1.99956 L 34.214132 1.99956 " stroke="#0a1026" stroke-width="4" stroke-opacity="1" stroke-miterlimit="4"/><path stroke-linecap="butt" transform="matrix(-0.746278, -0.000000000000000754, 0.000000000000000758, -0.75, 102.482606, 35.154713)" fill="none" stroke-linejoin="miter" d="M -0.00236982 1.997951 L 47.237242 1.997951 " stroke="#0a1026" stroke-width="4" stroke-opacity="1" stroke-miterlimit="4"/><path stroke-linecap="butt" transform="matrix(0.000000000000001924, -0.705882, 0.75, 0.000000000000002044, 66.363241, 35.150972)" fill="none" stroke-linejoin="miter" d="M -0.00194368 2.000054 L 5.321624 2.000054 " stroke="#0a1026" stroke-width="4" stroke-opacity="1" stroke-miterlimit="4"/></svg>