<svg xmlns="http://www.w3.org/2000/svg" xmlns:xlink="http://www.w3.org/1999/xlink" width="141" zoomAndPan="magnify" viewBox="0 0 105.75 44.999999" height="60" preserveAspectRatio="xMidYMid meet" version="1.0"><defs><g/><clipPath id="0487e1901b"><path d="M 23 1 L 105.5 1 L 105.5 24 L 23 24 Z M 23 1 " clip-rule="nonzero"/></clipPath></defs><g fill="#f3da38" fill-opacity="1"><g transform="translate(8.131628, 28.713657)"><g><path d="M 0.546875 -5.8125 C 0.546875 -6.957031 0.789062 -7.976562 1.28125 -8.875 C 1.78125 -9.769531 2.472656 -10.46875 3.359375 -10.96875 C 4.242188 -11.46875 5.25 -11.71875 6.375 -11.71875 C 7.75 -11.71875 8.925781 -11.351562 9.90625 -10.625 C 10.882812 -9.90625 11.539062 -8.914062 11.875 -7.65625 L 8.765625 -7.65625 C 8.535156 -8.144531 8.207031 -8.515625 7.78125 -8.765625 C 7.363281 -9.023438 6.882812 -9.15625 6.34375 -9.15625 C 5.46875 -9.15625 4.757812 -8.847656 4.21875 -8.234375 C 3.6875 -7.628906 3.421875 -6.820312 3.421875 -5.8125 C 3.421875 -4.800781 3.6875 -3.992188 4.21875 -3.390625 C 4.757812 -2.785156 5.46875 -2.484375 6.34375 -2.484375 C 6.882812 -2.484375 7.363281 -2.609375 7.78125 -2.859375 C 8.207031 -3.109375 8.535156 -3.476562 8.765625 -3.96875 L 11.875 -3.96875 C 11.539062 -2.707031 10.882812 -1.71875 9.90625 -1 C 8.925781 -0.28125 7.75 0.078125 6.375 0.078125 C 5.25 0.078125 4.242188 -0.171875 3.359375 -0.671875 C 2.472656 -1.171875 1.78125 -1.863281 1.28125 -2.75 C 0.789062 -3.644531 0.546875 -4.664062 0.546875 -5.8125 Z M 0.546875 -5.8125 "/></g></g></g><g fill="#f3da38" fill-opacity="1"><g transform="translate(21.726416, 28.713657)"><g><path d="M 5.21875 0.15625 C 4.375 0.15625 3.601562 -0.0351562 2.90625 -0.421875 C 2.21875 -0.804688 1.675781 -1.351562 1.28125 -2.0625 C 0.894531 -2.78125 0.703125 -3.609375 0.703125 -4.546875 C 0.703125 -5.460938 0.90625 -6.273438 1.3125 -6.984375 C 1.71875 -7.703125 2.265625 -8.25 2.953125 -8.625 C 3.648438 -9.007812 4.425781 -9.203125 5.28125 -9.203125 C 6.144531 -9.203125 6.921875 -9.007812 7.609375 -8.625 C 8.304688 -8.25 8.851562 -7.707031 9.25 -7 C 9.65625 -6.300781 9.859375 -5.484375 9.859375 -4.546875 C 9.859375 -3.609375 9.648438 -2.78125 9.234375 -2.0625 C 8.828125 -1.351562 8.269531 -0.804688 7.5625 -0.421875 C 6.851562 -0.0351562 6.070312 0.15625 5.21875 0.15625 Z M 5.21875 -1.171875 C 5.757812 -1.171875 6.265625 -1.296875 6.734375 -1.546875 C 7.210938 -1.804688 7.597656 -2.1875 7.890625 -2.6875 C 8.179688 -3.195312 8.328125 -3.816406 8.328125 -4.546875 C 8.328125 -5.265625 8.179688 -5.878906 7.890625 -6.390625 C 7.609375 -6.898438 7.234375 -7.273438 6.765625 -7.515625 C 6.304688 -7.765625 5.804688 -7.890625 5.265625 -7.890625 C 4.710938 -7.890625 4.207031 -7.765625 3.75 -7.515625 C 3.300781 -7.273438 2.9375 -6.898438 2.65625 -6.390625 C 2.382812 -5.878906 2.25 -5.265625 2.25 -4.546875 C 2.25 -3.804688 2.382812 -3.179688 2.65625 -2.671875 C 2.925781 -2.171875 3.285156 -1.796875 3.734375 -1.546875 C 4.179688 -1.296875 4.675781 -1.171875 5.21875 -1.171875 Z M 5.21875 -1.171875 "/></g></g></g><g fill="#f3da38" fill-opacity="1"><g transform="translate(33.306879, 28.713657)"><g><path d="M 5.6875 -9.21875 C 6.78125 -9.21875 7.664062 -8.882812 8.34375 -8.21875 C 9.03125 -7.550781 9.375 -6.585938 9.375 -5.328125 L 9.375 0 L 7.890625 0 L 7.890625 -5.125 C 7.890625 -6.019531 7.664062 -6.707031 7.21875 -7.1875 C 6.769531 -7.664062 6.15625 -7.90625 5.375 -7.90625 C 4.570312 -7.90625 3.9375 -7.65625 3.46875 -7.15625 C 3.007812 -6.664062 2.78125 -5.945312 2.78125 -5 L 2.78125 0 L 1.265625 0 L 1.265625 -9.046875 L 2.78125 -9.046875 L 2.78125 -7.765625 C 3.070312 -8.222656 3.472656 -8.578125 3.984375 -8.828125 C 4.492188 -9.085938 5.0625 -9.21875 5.6875 -9.21875 Z M 5.6875 -9.21875 "/></g></g></g><g fill="#f3da38" fill-opacity="1"><g transform="translate(44.887343, 28.713657)"><g><path d="M 4.640625 -1.390625 L 7.453125 -9.046875 L 9.046875 -9.046875 L 5.5 0 L 3.75 0 L 0.203125 -9.046875 L 1.8125 -9.046875 Z M 4.640625 -1.390625 "/></g></g></g><g fill="#f3da38" fill-opacity="1"><g transform="translate(55.162756, 28.713657)"><g><path d="M 9.53125 -4.875 C 9.53125 -4.582031 9.515625 -4.28125 9.484375 -3.96875 L 2.25 -3.96875 C 2.300781 -3.070312 2.601562 -2.375 3.15625 -1.875 C 3.71875 -1.375 4.394531 -1.125 5.1875 -1.125 C 5.832031 -1.125 6.375 -1.273438 6.8125 -1.578125 C 7.25 -1.878906 7.554688 -2.285156 7.734375 -2.796875 L 9.34375 -2.796875 C 9.101562 -1.921875 8.617188 -1.207031 7.890625 -0.65625 C 7.160156 -0.113281 6.257812 0.15625 5.1875 0.15625 C 4.320312 0.15625 3.550781 -0.0351562 2.875 -0.421875 C 2.195312 -0.804688 1.664062 -1.351562 1.28125 -2.0625 C 0.894531 -2.78125 0.703125 -3.609375 0.703125 -4.546875 C 0.703125 -5.484375 0.890625 -6.300781 1.265625 -7 C 1.640625 -7.707031 2.164062 -8.25 2.84375 -8.625 C 3.519531 -9.007812 4.300781 -9.203125 5.1875 -9.203125 C 6.039062 -9.203125 6.796875 -9.015625 7.453125 -8.640625 C 8.117188 -8.265625 8.628906 -7.75 8.984375 -7.09375 C 9.347656 -6.4375 9.53125 -5.695312 9.53125 -4.875 Z M 7.984375 -5.1875 C 7.984375 -5.757812 7.851562 -6.25 7.59375 -6.65625 C 7.34375 -7.070312 7 -7.382812 6.5625 -7.59375 C 6.125 -7.8125 5.644531 -7.921875 5.125 -7.921875 C 4.363281 -7.921875 3.710938 -7.675781 3.171875 -7.1875 C 2.640625 -6.707031 2.335938 -6.039062 2.265625 -5.1875 Z M 7.984375 -5.1875 "/></g></g></g><g fill="#f3da38" fill-opacity="1"><g transform="translate(66.412829, 28.713657)"><g><path d="M 2.78125 -7.578125 C 3.039062 -8.097656 3.414062 -8.5 3.90625 -8.78125 C 4.394531 -9.070312 4.992188 -9.21875 5.703125 -9.21875 L 5.703125 -7.65625 L 5.296875 -7.65625 C 3.617188 -7.65625 2.78125 -6.742188 2.78125 -4.921875 L 2.78125 0 L 1.265625 0 L 1.265625 -9.046875 L 2.78125 -9.046875 Z M 2.78125 -7.578125 "/></g></g></g><g fill="#f3da38" fill-opacity="1"><g transform="translate(73.582552, 28.713657)"><g><path d="M 3.109375 -7.8125 L 3.109375 -2.484375 C 3.109375 -2.035156 3.203125 -1.71875 3.390625 -1.53125 C 3.578125 -1.351562 3.898438 -1.265625 4.359375 -1.265625 L 5.46875 -1.265625 L 5.46875 0 L 4.109375 0 C 3.273438 0 2.648438 -0.191406 2.234375 -0.578125 C 1.816406 -0.960938 1.609375 -1.597656 1.609375 -2.484375 L 1.609375 -7.8125 L 0.421875 -7.8125 L 0.421875 -9.046875 L 1.609375 -9.046875 L 1.609375 -11.328125 L 3.109375 -11.328125 L 3.109375 -9.046875 L 5.46875 -9.046875 L 5.46875 -7.8125 Z M 3.109375 -7.8125 "/></g></g></g><g fill="#ffffff" fill-opacity="1"><g transform="translate(80.260129, 28.677522)"><g><path d="M 8.0625 -2 L 3.828125 -2 L 3.15625 0 L 0.265625 0 L 4.359375 -11.34375 L 7.5625 -11.34375 L 11.671875 0 L 8.734375 0 Z M 7.34375 -4.140625 L 5.953125 -8.28125 L 4.5625 -4.140625 Z M 7.34375 -4.140625 "/></g></g></g><g fill="#ffffff" fill-opacity="1"><g transform="translate(93.154327, 28.677522)"><g><path d="M 2.390625 -9.953125 C 1.910156 -9.953125 1.515625 -10.09375 1.203125 -10.375 C 0.898438 -10.664062 0.75 -11.019531 0.75 -11.4375 C 0.75 -11.863281 0.898438 -12.21875 1.203125 -12.5 C 1.515625 -12.789062 1.910156 -12.9375 2.390625 -12.9375 C 2.867188 -12.9375 3.257812 -12.789062 3.5625 -12.5 C 3.863281 -12.21875 4.015625 -11.863281 4.015625 -11.4375 C 4.015625 -11.019531 3.863281 -10.664062 3.5625 -10.375 C 3.257812 -10.09375 2.867188 -9.953125 2.390625 -9.953125 Z M 3.765625 -9.015625 L 3.765625 0 L 1 0 L 1 -9.015625 Z M 3.765625 -9.015625 "/></g></g></g><g clip-path="url(#0487e1901b)"><path stroke-linecap="butt" transform="matrix(-0.975836, 0.0000987295, -0.000098117, -0.969782, 100.26665, 13.144541)" fill="none" stroke-linejoin="miter" d="M 0.000949956 0.998947 L 67.591238 1.0018 " stroke="#f3da38" stroke-width="2" stroke-opacity="1" stroke-miterlimit="4"/></g><path stroke-linecap="butt" transform="matrix(0.000000000000000062, -1.017476, 0.969782, 0.000000000000000059, 34.32447, 18.753491)" fill="none" stroke-linejoin="miter" d="M -0.00040836 0.998677 L 7.639515 0.998677 " stroke="#f3da38" stroke-width="2" stroke-opacity="1" stroke-miterlimit="4"/><path stroke-linecap="butt" transform="matrix(0.000000000000000059, -0.969782, 0.969782, 0.000000000000000059, 99.304566, 33.662872)" fill="none" stroke-linejoin="miter" d="M -0.00122734 0.999061 L 23.010555 0.999061 " stroke="#f3da38" stroke-width="2" stroke-opacity="1" stroke-miterlimit="4"/><path stroke-linecap="butt" transform="matrix(-0.97561, -0.000000000000000986, 0.00000000000000098, -0.969782, 100.769318, 33.901152)" fill="none" stroke-linejoin="miter" d="M -0.000218936 1.001735 L 33.796731 1.001735 " stroke="#f3da38" stroke-width="2" stroke-opacity="1" stroke-miterlimit="4"/><path stroke-linecap="butt" transform="matrix(0.000000000000008963, -0.954862, 0.969782, 0.000000000000009103, 67.344898, 33.593493)" fill="none" stroke-linejoin="miter" d="M -0.000269247 1.00178 L 3.059728 1.00178 " stroke="#f3da38" stroke-width="2" stroke-opacity="1" stroke-miterlimit="4"/></svg>